%TF.GenerationSoftware,KiCad,Pcbnew,(6.0.4)*%
%TF.CreationDate,2022-07-05T22:15:58-06:00*%
%TF.ProjectId,fourPostScematic,666f7572-506f-4737-9453-63656d617469,rev?*%
%TF.SameCoordinates,Original*%
%TF.FileFunction,Copper,L1,Top*%
%TF.FilePolarity,Positive*%
%FSLAX46Y46*%
G04 Gerber Fmt 4.6, Leading zero omitted, Abs format (unit mm)*
G04 Created by KiCad (PCBNEW (6.0.4)) date 2022-07-05 22:15:58*
%MOMM*%
%LPD*%
G01*
G04 APERTURE LIST*
G04 Aperture macros list*
%AMRoundRect*
0 Rectangle with rounded corners*
0 $1 Rounding radius*
0 $2 $3 $4 $5 $6 $7 $8 $9 X,Y pos of 4 corners*
0 Add a 4 corners polygon primitive as box body*
4,1,4,$2,$3,$4,$5,$6,$7,$8,$9,$2,$3,0*
0 Add four circle primitives for the rounded corners*
1,1,$1+$1,$2,$3*
1,1,$1+$1,$4,$5*
1,1,$1+$1,$6,$7*
1,1,$1+$1,$8,$9*
0 Add four rect primitives between the rounded corners*
20,1,$1+$1,$2,$3,$4,$5,0*
20,1,$1+$1,$4,$5,$6,$7,0*
20,1,$1+$1,$6,$7,$8,$9,0*
20,1,$1+$1,$8,$9,$2,$3,0*%
G04 Aperture macros list end*
%TA.AperFunction,Profile*%
%ADD10C,0.100000*%
%TD*%
%TA.AperFunction,SMDPad,CuDef*%
%ADD11R,1.800000X2.600000*%
%TD*%
%TA.AperFunction,ComponentPad*%
%ADD12R,1.727200X1.727200*%
%TD*%
%TA.AperFunction,ComponentPad*%
%ADD13C,1.727200*%
%TD*%
%TA.AperFunction,ComponentPad*%
%ADD14O,1.727200X1.727200*%
%TD*%
%TA.AperFunction,SMDPad,CuDef*%
%ADD15RoundRect,0.250000X-0.350000X-0.450000X0.350000X-0.450000X0.350000X0.450000X-0.350000X0.450000X0*%
%TD*%
%TA.AperFunction,SMDPad,CuDef*%
%ADD16RoundRect,0.250000X0.325000X0.450000X-0.325000X0.450000X-0.325000X-0.450000X0.325000X-0.450000X0*%
%TD*%
%TA.AperFunction,ComponentPad*%
%ADD17C,3.000000*%
%TD*%
%TA.AperFunction,Conductor*%
%ADD18C,0.250000*%
%TD*%
G04 APERTURE END LIST*
D10*
X68072000Y-55372000D02*
X115062000Y-55372000D01*
X115062000Y-55372000D02*
X115062000Y-81534000D01*
X115062000Y-81534000D02*
X68072000Y-81534000D01*
X68072000Y-81534000D02*
X68072000Y-55372000D01*
D11*
%TO.P,J1,1*%
%TO.N,GND*%
X112940000Y-64759500D03*
%TO.P,J1,2*%
%TO.N,Net-(R1-Pad2)*%
X106190000Y-64759500D03*
%TO.P,J1,3*%
%TO.N,Net-(R3-Pad2)*%
X110340000Y-72159500D03*
%TD*%
D12*
%TO.P,X1,1,VCC*%
%TO.N,+3V3*%
X88706000Y-69362000D03*
D13*
%TO.P,X1,2,GND*%
%TO.N,GND*%
X88706000Y-71902000D03*
D14*
%TO.P,X1,3,SDA*%
%TO.N,unconnected-(X1-Pad3)*%
X91246000Y-69362000D03*
%TO.P,X1,4,SCL*%
%TO.N,unconnected-(X1-Pad4)*%
X91246000Y-71902000D03*
D13*
%TO.P,X1,5,GPIO1*%
%TO.N,unconnected-(X1-Pad5)*%
X93786000Y-69362000D03*
%TO.P,X1,6,GPIO2*%
%TO.N,unconnected-(X1-Pad6)*%
X93786000Y-71902000D03*
%TD*%
D15*
%TO.P,R6,1*%
%TO.N,+3V3*%
X88916000Y-62484000D03*
%TO.P,R6,2*%
%TO.N,Net-(D1-Pad2)*%
X90916000Y-62484000D03*
%TD*%
%TO.P,R4,1*%
%TO.N,Net-(R4-Pad1)*%
X75454000Y-77724000D03*
%TO.P,R4,2*%
%TO.N,Net-(R3-Pad2)*%
X77454000Y-77724000D03*
%TD*%
D16*
%TO.P,D1,1,K*%
%TO.N,GND*%
X94751000Y-62484000D03*
%TO.P,D1,2,A*%
%TO.N,Net-(D1-Pad2)*%
X92701000Y-62484000D03*
%TD*%
D17*
%TO.P,J3,1,Pin_1*%
%TO.N,Net-(R4-Pad1)*%
X71120000Y-77660000D03*
%TO.P,J3,2,Pin_1*%
%TO.N,Net-(R2-Pad1)*%
X71120000Y-73660000D03*
%TD*%
%TO.P,J2,1,Pin_1*%
%TO.N,Net-(R1-Pad1)*%
X71120000Y-58420000D03*
%TO.P,J2,2,Pin_1*%
%TO.N,Net-(R2-Pad1)*%
X71120000Y-62420000D03*
%TD*%
D15*
%TO.P,R2,1*%
%TO.N,Net-(R2-Pad1)*%
X75454000Y-62484000D03*
%TO.P,R2,2*%
%TO.N,Net-(R1-Pad2)*%
X77454000Y-62484000D03*
%TD*%
%TO.P,R5,1*%
%TO.N,Net-(R2-Pad1)*%
X77486000Y-68326000D03*
%TO.P,R5,2*%
%TO.N,GND*%
X79486000Y-68326000D03*
%TD*%
%TO.P,R3,1*%
%TO.N,Net-(R2-Pad1)*%
X75454000Y-73660000D03*
%TO.P,R3,2*%
%TO.N,Net-(R3-Pad2)*%
X77454000Y-73660000D03*
%TD*%
%TO.P,R1,1*%
%TO.N,Net-(R1-Pad1)*%
X75454000Y-58420000D03*
%TO.P,R1,2*%
%TO.N,Net-(R1-Pad2)*%
X77454000Y-58420000D03*
%TD*%
D18*
%TO.N,Net-(R1-Pad2)*%
X106190000Y-64759500D02*
X106190000Y-64026000D01*
X106190000Y-64026000D02*
X100584000Y-58420000D01*
X100584000Y-58420000D02*
X77454000Y-58420000D01*
X77454000Y-62484000D02*
X77454000Y-58420000D01*
%TO.N,Net-(R3-Pad2)*%
X77454000Y-77724000D02*
X100584000Y-77724000D01*
X106148500Y-72159500D02*
X100584000Y-77724000D01*
X77454000Y-77724000D02*
X77454000Y-73660000D01*
X110340000Y-72159500D02*
X106148500Y-72159500D01*
%TO.N,Net-(D1-Pad2)*%
X90916000Y-62484000D02*
X92701000Y-62484000D01*
%TO.N,Net-(R1-Pad1)*%
X71120000Y-58420000D02*
X75454000Y-58420000D01*
%TO.N,Net-(R2-Pad1)*%
X71120000Y-62420000D02*
X75390000Y-62420000D01*
X75454000Y-73660000D02*
X75454000Y-70358000D01*
X75454000Y-62484000D02*
X75454000Y-66294000D01*
X71120000Y-73660000D02*
X75454000Y-73660000D01*
X75390000Y-62420000D02*
X75454000Y-62484000D01*
X75454000Y-70358000D02*
X77486000Y-68326000D01*
X75454000Y-66294000D02*
X77486000Y-68326000D01*
%TO.N,Net-(R4-Pad1)*%
X75390000Y-77660000D02*
X75454000Y-77724000D01*
X71120000Y-77660000D02*
X75390000Y-77660000D01*
%TO.N,+3V3*%
X88706000Y-62694000D02*
X88706000Y-69362000D01*
X88916000Y-62484000D02*
X88706000Y-62694000D01*
%TD*%
%TA.AperFunction,Conductor*%
%TO.N,GND*%
G36*
X114494816Y-56154002D02*
G01*
X114541309Y-56207658D01*
X114552688Y-56261297D01*
X114482277Y-63091215D01*
X114482264Y-63092435D01*
X114461561Y-63160346D01*
X114407429Y-63206283D01*
X114337055Y-63215662D01*
X114272781Y-63185505D01*
X114255445Y-63166701D01*
X114208286Y-63103777D01*
X114195724Y-63091215D01*
X114093649Y-63014714D01*
X114078054Y-63006176D01*
X113957606Y-62961022D01*
X113942351Y-62957395D01*
X113891486Y-62951869D01*
X113884672Y-62951500D01*
X113212115Y-62951500D01*
X113196876Y-62955975D01*
X113195671Y-62957365D01*
X113194000Y-62965048D01*
X113194000Y-66549384D01*
X113198475Y-66564623D01*
X113199865Y-66565828D01*
X113207548Y-66567499D01*
X113884669Y-66567499D01*
X113891490Y-66567129D01*
X113942352Y-66561605D01*
X113957604Y-66557979D01*
X114078054Y-66512824D01*
X114093649Y-66504286D01*
X114195724Y-66427785D01*
X114208283Y-66415226D01*
X114220566Y-66398837D01*
X114277426Y-66356323D01*
X114348245Y-66351298D01*
X114410538Y-66385358D01*
X114444528Y-66447689D01*
X114447385Y-66475698D01*
X114311400Y-79666199D01*
X114301286Y-80647299D01*
X114280583Y-80715210D01*
X114226451Y-80761147D01*
X114175293Y-80772000D01*
X68706500Y-80772000D01*
X68638379Y-80751998D01*
X68591886Y-80698342D01*
X68580500Y-80646000D01*
X68580500Y-77638918D01*
X69106917Y-77638918D01*
X69122682Y-77912320D01*
X69123507Y-77916525D01*
X69123508Y-77916533D01*
X69153917Y-78071526D01*
X69175405Y-78181053D01*
X69176792Y-78185103D01*
X69176793Y-78185108D01*
X69236485Y-78359453D01*
X69264112Y-78440144D01*
X69266039Y-78443975D01*
X69373086Y-78656815D01*
X69387160Y-78684799D01*
X69389586Y-78688328D01*
X69389589Y-78688334D01*
X69513359Y-78868419D01*
X69542274Y-78910490D01*
X69545161Y-78913663D01*
X69545162Y-78913664D01*
X69552964Y-78922238D01*
X69726582Y-79113043D01*
X69936675Y-79288707D01*
X69940316Y-79290991D01*
X70165024Y-79431951D01*
X70165028Y-79431953D01*
X70168664Y-79434234D01*
X70236544Y-79464883D01*
X70414345Y-79545164D01*
X70414349Y-79545166D01*
X70418257Y-79546930D01*
X70422377Y-79548150D01*
X70422376Y-79548150D01*
X70676723Y-79623491D01*
X70676727Y-79623492D01*
X70680836Y-79624709D01*
X70685070Y-79625357D01*
X70685075Y-79625358D01*
X70947298Y-79665483D01*
X70947300Y-79665483D01*
X70951540Y-79666132D01*
X71090912Y-79668322D01*
X71221071Y-79670367D01*
X71221077Y-79670367D01*
X71225362Y-79670434D01*
X71497235Y-79637534D01*
X71762127Y-79568041D01*
X71766087Y-79566401D01*
X71766092Y-79566399D01*
X71888632Y-79515641D01*
X72015136Y-79463241D01*
X72251582Y-79325073D01*
X72467089Y-79156094D01*
X72508809Y-79113043D01*
X72654686Y-78962509D01*
X72657669Y-78959431D01*
X72660202Y-78955983D01*
X72660206Y-78955978D01*
X72817257Y-78742178D01*
X72819795Y-78738723D01*
X72848565Y-78685736D01*
X72948418Y-78501830D01*
X72948419Y-78501828D01*
X72950468Y-78498054D01*
X72996980Y-78374963D01*
X73039769Y-78318310D01*
X73106395Y-78293784D01*
X73114846Y-78293500D01*
X74253451Y-78293500D01*
X74321572Y-78313502D01*
X74368065Y-78367158D01*
X74372972Y-78379616D01*
X74412450Y-78497946D01*
X74505522Y-78648348D01*
X74630697Y-78773305D01*
X74636927Y-78777145D01*
X74636928Y-78777146D01*
X74774090Y-78861694D01*
X74781262Y-78866115D01*
X74861005Y-78892564D01*
X74942611Y-78919632D01*
X74942613Y-78919632D01*
X74949139Y-78921797D01*
X74955975Y-78922497D01*
X74955978Y-78922498D01*
X74999031Y-78926909D01*
X75053600Y-78932500D01*
X75854400Y-78932500D01*
X75857646Y-78932163D01*
X75857650Y-78932163D01*
X75953308Y-78922238D01*
X75953312Y-78922237D01*
X75960166Y-78921526D01*
X75966702Y-78919345D01*
X75966704Y-78919345D01*
X76098806Y-78875272D01*
X76127946Y-78865550D01*
X76278348Y-78772478D01*
X76364784Y-78685891D01*
X76427066Y-78651812D01*
X76497886Y-78656815D01*
X76542976Y-78685736D01*
X76630697Y-78773305D01*
X76636927Y-78777145D01*
X76636928Y-78777146D01*
X76774090Y-78861694D01*
X76781262Y-78866115D01*
X76861005Y-78892564D01*
X76942611Y-78919632D01*
X76942613Y-78919632D01*
X76949139Y-78921797D01*
X76955975Y-78922497D01*
X76955978Y-78922498D01*
X76999031Y-78926909D01*
X77053600Y-78932500D01*
X77854400Y-78932500D01*
X77857646Y-78932163D01*
X77857650Y-78932163D01*
X77953308Y-78922238D01*
X77953312Y-78922237D01*
X77960166Y-78921526D01*
X77966702Y-78919345D01*
X77966704Y-78919345D01*
X78098806Y-78875272D01*
X78127946Y-78865550D01*
X78278348Y-78772478D01*
X78403305Y-78647303D01*
X78496115Y-78496738D01*
X78513663Y-78443832D01*
X78554094Y-78385473D01*
X78619658Y-78358236D01*
X78633256Y-78357500D01*
X100505233Y-78357500D01*
X100516416Y-78358027D01*
X100523909Y-78359702D01*
X100531835Y-78359453D01*
X100531836Y-78359453D01*
X100591986Y-78357562D01*
X100595945Y-78357500D01*
X100623856Y-78357500D01*
X100627791Y-78357003D01*
X100627856Y-78356995D01*
X100639693Y-78356062D01*
X100671951Y-78355048D01*
X100675970Y-78354922D01*
X100683889Y-78354673D01*
X100703343Y-78349021D01*
X100722700Y-78345013D01*
X100734930Y-78343468D01*
X100734931Y-78343468D01*
X100742797Y-78342474D01*
X100750168Y-78339555D01*
X100750170Y-78339555D01*
X100783912Y-78326196D01*
X100795142Y-78322351D01*
X100829983Y-78312229D01*
X100829984Y-78312229D01*
X100837593Y-78310018D01*
X100844412Y-78305985D01*
X100844417Y-78305983D01*
X100855028Y-78299707D01*
X100872776Y-78291012D01*
X100891617Y-78283552D01*
X100927387Y-78257564D01*
X100937307Y-78251048D01*
X100968535Y-78232580D01*
X100968538Y-78232578D01*
X100975362Y-78228542D01*
X100989683Y-78214221D01*
X101004717Y-78201380D01*
X101014694Y-78194131D01*
X101021107Y-78189472D01*
X101049298Y-78155395D01*
X101057288Y-78146616D01*
X106373999Y-72829905D01*
X106436311Y-72795879D01*
X106463094Y-72793000D01*
X108805500Y-72793000D01*
X108873621Y-72813002D01*
X108920114Y-72866658D01*
X108931500Y-72919000D01*
X108931500Y-73507634D01*
X108938255Y-73569816D01*
X108989385Y-73706205D01*
X109076739Y-73822761D01*
X109193295Y-73910115D01*
X109329684Y-73961245D01*
X109391866Y-73968000D01*
X111288134Y-73968000D01*
X111350316Y-73961245D01*
X111486705Y-73910115D01*
X111603261Y-73822761D01*
X111690615Y-73706205D01*
X111741745Y-73569816D01*
X111748500Y-73507634D01*
X111748500Y-70811366D01*
X111741745Y-70749184D01*
X111690615Y-70612795D01*
X111603261Y-70496239D01*
X111486705Y-70408885D01*
X111350316Y-70357755D01*
X111288134Y-70351000D01*
X109391866Y-70351000D01*
X109329684Y-70357755D01*
X109193295Y-70408885D01*
X109076739Y-70496239D01*
X108989385Y-70612795D01*
X108938255Y-70749184D01*
X108931500Y-70811366D01*
X108931500Y-71400000D01*
X108911498Y-71468121D01*
X108857842Y-71514614D01*
X108805500Y-71526000D01*
X106227263Y-71526000D01*
X106216079Y-71525473D01*
X106208591Y-71523799D01*
X106200668Y-71524048D01*
X106140533Y-71525938D01*
X106136575Y-71526000D01*
X106108644Y-71526000D01*
X106104729Y-71526495D01*
X106104725Y-71526495D01*
X106104667Y-71526503D01*
X106104638Y-71526506D01*
X106092796Y-71527439D01*
X106048610Y-71528827D01*
X106033523Y-71533210D01*
X106029158Y-71534478D01*
X106009806Y-71538486D01*
X105997568Y-71540032D01*
X105997566Y-71540033D01*
X105989703Y-71541026D01*
X105948586Y-71557306D01*
X105937385Y-71561141D01*
X105894906Y-71573482D01*
X105888087Y-71577515D01*
X105888082Y-71577517D01*
X105877471Y-71583793D01*
X105859721Y-71592490D01*
X105840883Y-71599948D01*
X105834467Y-71604609D01*
X105834466Y-71604610D01*
X105805125Y-71625928D01*
X105795201Y-71632447D01*
X105763960Y-71650922D01*
X105763955Y-71650926D01*
X105757137Y-71654958D01*
X105742813Y-71669282D01*
X105727781Y-71682121D01*
X105711393Y-71694028D01*
X105683212Y-71728093D01*
X105675222Y-71736873D01*
X100358500Y-77053595D01*
X100296188Y-77087621D01*
X100269405Y-77090500D01*
X78633197Y-77090500D01*
X78565076Y-77070498D01*
X78518583Y-77016842D01*
X78513674Y-77004377D01*
X78497867Y-76956998D01*
X78497866Y-76956996D01*
X78495550Y-76950054D01*
X78402478Y-76799652D01*
X78277303Y-76674695D01*
X78183887Y-76617112D01*
X78147384Y-76594611D01*
X78099890Y-76541838D01*
X78087500Y-76487351D01*
X78087500Y-74896781D01*
X78107502Y-74828660D01*
X78147197Y-74789637D01*
X78272120Y-74712332D01*
X78278348Y-74708478D01*
X78403305Y-74583303D01*
X78453991Y-74501075D01*
X78492275Y-74438968D01*
X78492276Y-74438966D01*
X78496115Y-74432738D01*
X78551797Y-74264861D01*
X78562500Y-74160400D01*
X78562500Y-73159600D01*
X78560845Y-73143645D01*
X78552238Y-73060692D01*
X78552237Y-73060688D01*
X78551526Y-73053834D01*
X78545842Y-73036796D01*
X87936034Y-73036796D01*
X87941315Y-73043850D01*
X88106859Y-73140586D01*
X88116146Y-73145036D01*
X88317193Y-73221808D01*
X88327091Y-73224684D01*
X88537979Y-73267589D01*
X88548208Y-73268808D01*
X88763269Y-73276695D01*
X88773555Y-73276228D01*
X88987022Y-73248883D01*
X88997099Y-73246741D01*
X89203225Y-73184900D01*
X89212832Y-73181134D01*
X89406074Y-73086466D01*
X89414940Y-73081181D01*
X89464998Y-73045474D01*
X89473399Y-73034774D01*
X89466411Y-73021621D01*
X88718812Y-72274022D01*
X88704868Y-72266408D01*
X88703035Y-72266539D01*
X88696420Y-72270790D01*
X87942794Y-73024416D01*
X87936034Y-73036796D01*
X78545842Y-73036796D01*
X78541712Y-73024416D01*
X78497868Y-72893002D01*
X78495550Y-72886054D01*
X78402478Y-72735652D01*
X78277303Y-72610695D01*
X78270447Y-72606469D01*
X78132968Y-72521725D01*
X78132966Y-72521724D01*
X78126738Y-72517885D01*
X78046707Y-72491340D01*
X77965389Y-72464368D01*
X77965387Y-72464368D01*
X77958861Y-72462203D01*
X77952025Y-72461503D01*
X77952022Y-72461502D01*
X77908969Y-72457091D01*
X77854400Y-72451500D01*
X77053600Y-72451500D01*
X77050354Y-72451837D01*
X77050350Y-72451837D01*
X76954692Y-72461762D01*
X76954688Y-72461763D01*
X76947834Y-72462474D01*
X76941298Y-72464655D01*
X76941296Y-72464655D01*
X76861312Y-72491340D01*
X76780054Y-72518450D01*
X76629652Y-72611522D01*
X76580660Y-72660600D01*
X76543216Y-72698109D01*
X76480934Y-72732188D01*
X76410114Y-72727185D01*
X76365025Y-72698264D01*
X76282483Y-72615866D01*
X76277303Y-72610695D01*
X76270447Y-72606469D01*
X76147384Y-72530611D01*
X76099890Y-72477838D01*
X76087500Y-72423351D01*
X76087500Y-71873530D01*
X87330407Y-71873530D01*
X87342795Y-72088375D01*
X87344231Y-72098596D01*
X87391542Y-72308528D01*
X87394621Y-72318356D01*
X87475586Y-72517748D01*
X87480239Y-72526959D01*
X87562569Y-72661308D01*
X87573027Y-72670770D01*
X87581803Y-72666987D01*
X88333978Y-71914812D01*
X88341592Y-71900868D01*
X88341461Y-71899035D01*
X88337210Y-71892420D01*
X87586062Y-71141272D01*
X87574526Y-71134972D01*
X87562243Y-71144595D01*
X87512225Y-71217918D01*
X87507137Y-71226874D01*
X87416530Y-71422071D01*
X87412967Y-71431758D01*
X87355459Y-71639124D01*
X87353528Y-71649244D01*
X87330659Y-71863241D01*
X87330407Y-71873530D01*
X76087500Y-71873530D01*
X76087500Y-70672594D01*
X76107502Y-70604473D01*
X76124405Y-70583499D01*
X76434170Y-70273734D01*
X87333900Y-70273734D01*
X87340655Y-70335916D01*
X87391785Y-70472305D01*
X87479139Y-70588861D01*
X87595695Y-70676215D01*
X87732084Y-70727345D01*
X87794266Y-70734100D01*
X87845120Y-70734100D01*
X87913241Y-70754102D01*
X87934215Y-70771005D01*
X88693188Y-71529978D01*
X88707132Y-71537592D01*
X88708965Y-71537461D01*
X88715580Y-71533210D01*
X89477785Y-70771005D01*
X89540097Y-70736979D01*
X89566880Y-70734100D01*
X89617734Y-70734100D01*
X89679916Y-70727345D01*
X89816305Y-70676215D01*
X89932861Y-70588861D01*
X90020215Y-70472305D01*
X90051867Y-70387875D01*
X90058213Y-70370946D01*
X90100854Y-70314181D01*
X90167416Y-70289481D01*
X90236765Y-70304688D01*
X90271431Y-70332676D01*
X90282702Y-70345687D01*
X90456299Y-70489810D01*
X90460751Y-70492412D01*
X90460756Y-70492415D01*
X90510069Y-70521231D01*
X90558792Y-70572870D01*
X90571863Y-70642653D01*
X90545131Y-70708425D01*
X90514595Y-70735783D01*
X90512335Y-70736960D01*
X90331905Y-70872430D01*
X90176024Y-71035550D01*
X90173107Y-71039827D01*
X90079199Y-71177491D01*
X90024287Y-71222494D01*
X89953762Y-71230665D01*
X89890015Y-71199411D01*
X89869318Y-71174927D01*
X89848899Y-71143363D01*
X89838212Y-71134160D01*
X89828647Y-71138563D01*
X89078022Y-71889188D01*
X89070408Y-71903132D01*
X89070539Y-71904965D01*
X89074790Y-71911580D01*
X89826219Y-72663009D01*
X89838230Y-72669568D01*
X89849969Y-72660600D01*
X89875087Y-72625645D01*
X89931082Y-72581998D01*
X90001786Y-72575553D01*
X90064750Y-72608356D01*
X90084842Y-72633337D01*
X90101983Y-72661308D01*
X90134975Y-72715147D01*
X90282702Y-72885687D01*
X90418618Y-72998527D01*
X90451426Y-73025764D01*
X90456299Y-73029810D01*
X90460751Y-73032412D01*
X90460756Y-73032415D01*
X90573568Y-73098337D01*
X90651103Y-73143645D01*
X90861884Y-73224134D01*
X90866952Y-73225165D01*
X90866955Y-73225166D01*
X90973000Y-73246741D01*
X91082981Y-73269117D01*
X91088156Y-73269307D01*
X91088158Y-73269307D01*
X91303292Y-73277196D01*
X91303296Y-73277196D01*
X91308456Y-73277385D01*
X91313576Y-73276729D01*
X91313578Y-73276729D01*
X91384926Y-73267589D01*
X91532253Y-73248716D01*
X91537202Y-73247231D01*
X91537208Y-73247230D01*
X91743413Y-73185365D01*
X91743412Y-73185365D01*
X91748363Y-73183880D01*
X91843419Y-73137312D01*
X91946331Y-73086897D01*
X91946336Y-73086894D01*
X91950982Y-73084618D01*
X91955192Y-73081615D01*
X91955197Y-73081612D01*
X92130455Y-72956601D01*
X92130459Y-72956597D01*
X92134667Y-72953596D01*
X92294487Y-72794333D01*
X92415370Y-72626107D01*
X92471364Y-72582459D01*
X92542068Y-72576013D01*
X92605032Y-72608816D01*
X92625125Y-72633799D01*
X92672275Y-72710743D01*
X92672279Y-72710748D01*
X92674975Y-72715147D01*
X92822702Y-72885687D01*
X92958618Y-72998527D01*
X92991426Y-73025764D01*
X92996299Y-73029810D01*
X93000751Y-73032412D01*
X93000756Y-73032415D01*
X93113568Y-73098337D01*
X93191103Y-73143645D01*
X93401884Y-73224134D01*
X93406952Y-73225165D01*
X93406955Y-73225166D01*
X93513000Y-73246741D01*
X93622981Y-73269117D01*
X93628156Y-73269307D01*
X93628158Y-73269307D01*
X93843292Y-73277196D01*
X93843296Y-73277196D01*
X93848456Y-73277385D01*
X93853576Y-73276729D01*
X93853578Y-73276729D01*
X93924926Y-73267589D01*
X94072253Y-73248716D01*
X94077202Y-73247231D01*
X94077208Y-73247230D01*
X94283413Y-73185365D01*
X94283412Y-73185365D01*
X94288363Y-73183880D01*
X94383419Y-73137312D01*
X94486331Y-73086897D01*
X94486336Y-73086894D01*
X94490982Y-73084618D01*
X94495192Y-73081615D01*
X94495197Y-73081612D01*
X94670455Y-72956601D01*
X94670459Y-72956597D01*
X94674667Y-72953596D01*
X94834487Y-72794333D01*
X94966150Y-72611105D01*
X95066118Y-72408835D01*
X95131708Y-72192952D01*
X95154253Y-72021706D01*
X95160721Y-71972578D01*
X95160722Y-71972572D01*
X95161158Y-71969256D01*
X95162802Y-71902000D01*
X95144315Y-71677132D01*
X95089349Y-71458304D01*
X94999380Y-71251391D01*
X94949913Y-71174927D01*
X94879634Y-71066291D01*
X94879632Y-71066288D01*
X94876826Y-71061951D01*
X94724977Y-70895071D01*
X94720926Y-70891872D01*
X94720922Y-70891868D01*
X94551966Y-70758434D01*
X94551962Y-70758432D01*
X94547911Y-70755232D01*
X94524535Y-70742328D01*
X94474564Y-70691896D01*
X94459792Y-70622453D01*
X94484908Y-70556047D01*
X94512259Y-70529441D01*
X94670455Y-70416601D01*
X94670459Y-70416597D01*
X94674667Y-70413596D01*
X94834487Y-70254333D01*
X94966150Y-70071105D01*
X95066118Y-69868835D01*
X95131708Y-69652952D01*
X95146888Y-69537651D01*
X95160721Y-69432578D01*
X95160722Y-69432572D01*
X95161158Y-69429256D01*
X95162410Y-69378026D01*
X95162720Y-69365364D01*
X95162720Y-69365360D01*
X95162802Y-69362000D01*
X95144315Y-69137132D01*
X95089349Y-68918304D01*
X94999380Y-68711391D01*
X94951096Y-68636755D01*
X94879634Y-68526291D01*
X94879632Y-68526288D01*
X94876826Y-68521951D01*
X94854680Y-68497613D01*
X105277214Y-68497613D01*
X105303130Y-68711777D01*
X105366563Y-68917966D01*
X105465505Y-69109664D01*
X105468920Y-69114114D01*
X105593415Y-69276360D01*
X105593419Y-69276364D01*
X105596831Y-69280811D01*
X105604223Y-69287537D01*
X105752242Y-69422224D01*
X105752245Y-69422226D01*
X105756389Y-69425997D01*
X105761141Y-69428978D01*
X105934379Y-69537651D01*
X105934383Y-69537653D01*
X105939135Y-69540634D01*
X106139293Y-69621097D01*
X106350537Y-69664844D01*
X106355148Y-69665110D01*
X106355149Y-69665110D01*
X106403452Y-69667895D01*
X106403456Y-69667895D01*
X106405275Y-69668000D01*
X106544735Y-69668000D01*
X106547522Y-69667751D01*
X106547528Y-69667751D01*
X106614240Y-69661797D01*
X106704872Y-69653708D01*
X106831740Y-69619001D01*
X106907536Y-69598266D01*
X106907540Y-69598265D01*
X106912952Y-69596784D01*
X107107663Y-69503911D01*
X107282851Y-69378026D01*
X107403566Y-69253458D01*
X107429074Y-69227136D01*
X107429076Y-69227133D01*
X107432977Y-69223108D01*
X107553297Y-69044053D01*
X107640008Y-68846520D01*
X107690368Y-68636755D01*
X107698391Y-68497613D01*
X111277214Y-68497613D01*
X111303130Y-68711777D01*
X111366563Y-68917966D01*
X111465505Y-69109664D01*
X111468920Y-69114114D01*
X111593415Y-69276360D01*
X111593419Y-69276364D01*
X111596831Y-69280811D01*
X111604223Y-69287537D01*
X111752242Y-69422224D01*
X111752245Y-69422226D01*
X111756389Y-69425997D01*
X111761141Y-69428978D01*
X111934379Y-69537651D01*
X111934383Y-69537653D01*
X111939135Y-69540634D01*
X112139293Y-69621097D01*
X112350537Y-69664844D01*
X112355148Y-69665110D01*
X112355149Y-69665110D01*
X112403452Y-69667895D01*
X112403456Y-69667895D01*
X112405275Y-69668000D01*
X112544735Y-69668000D01*
X112547522Y-69667751D01*
X112547528Y-69667751D01*
X112614240Y-69661797D01*
X112704872Y-69653708D01*
X112831740Y-69619001D01*
X112907536Y-69598266D01*
X112907540Y-69598265D01*
X112912952Y-69596784D01*
X113107663Y-69503911D01*
X113282851Y-69378026D01*
X113403566Y-69253458D01*
X113429074Y-69227136D01*
X113429076Y-69227133D01*
X113432977Y-69223108D01*
X113553297Y-69044053D01*
X113640008Y-68846520D01*
X113690368Y-68636755D01*
X113701317Y-68446869D01*
X113702463Y-68426994D01*
X113702463Y-68426991D01*
X113702786Y-68421387D01*
X113676870Y-68207223D01*
X113664064Y-68165595D01*
X113615085Y-68006391D01*
X113613437Y-68001034D01*
X113524595Y-67828905D01*
X113517066Y-67814317D01*
X113517065Y-67814316D01*
X113514495Y-67809336D01*
X113440881Y-67713400D01*
X113386585Y-67642640D01*
X113386581Y-67642636D01*
X113383169Y-67638189D01*
X113321616Y-67582180D01*
X113227758Y-67496776D01*
X113227755Y-67496774D01*
X113223611Y-67493003D01*
X113218859Y-67490022D01*
X113045621Y-67381349D01*
X113045617Y-67381347D01*
X113040865Y-67378366D01*
X112840707Y-67297903D01*
X112629463Y-67254156D01*
X112624852Y-67253890D01*
X112624851Y-67253890D01*
X112576548Y-67251105D01*
X112576544Y-67251105D01*
X112574725Y-67251000D01*
X112435265Y-67251000D01*
X112432478Y-67251249D01*
X112432472Y-67251249D01*
X112365760Y-67257203D01*
X112275128Y-67265292D01*
X112160085Y-67296764D01*
X112072464Y-67320734D01*
X112072460Y-67320735D01*
X112067048Y-67322216D01*
X111872337Y-67415089D01*
X111697149Y-67540974D01*
X111547023Y-67695892D01*
X111426703Y-67874947D01*
X111339992Y-68072480D01*
X111289632Y-68282245D01*
X111289309Y-68287850D01*
X111280865Y-68434301D01*
X111277214Y-68497613D01*
X107698391Y-68497613D01*
X107701317Y-68446869D01*
X107702463Y-68426994D01*
X107702463Y-68426991D01*
X107702786Y-68421387D01*
X107676870Y-68207223D01*
X107664064Y-68165595D01*
X107615085Y-68006391D01*
X107613437Y-68001034D01*
X107524595Y-67828905D01*
X107517066Y-67814317D01*
X107517065Y-67814316D01*
X107514495Y-67809336D01*
X107440881Y-67713400D01*
X107386585Y-67642640D01*
X107386581Y-67642636D01*
X107383169Y-67638189D01*
X107321616Y-67582180D01*
X107227758Y-67496776D01*
X107227755Y-67496774D01*
X107223611Y-67493003D01*
X107218859Y-67490022D01*
X107045621Y-67381349D01*
X107045617Y-67381347D01*
X107040865Y-67378366D01*
X106840707Y-67297903D01*
X106629463Y-67254156D01*
X106624852Y-67253890D01*
X106624851Y-67253890D01*
X106576548Y-67251105D01*
X106576544Y-67251105D01*
X106574725Y-67251000D01*
X106435265Y-67251000D01*
X106432478Y-67251249D01*
X106432472Y-67251249D01*
X106365760Y-67257203D01*
X106275128Y-67265292D01*
X106160085Y-67296764D01*
X106072464Y-67320734D01*
X106072460Y-67320735D01*
X106067048Y-67322216D01*
X105872337Y-67415089D01*
X105697149Y-67540974D01*
X105547023Y-67695892D01*
X105426703Y-67874947D01*
X105339992Y-68072480D01*
X105289632Y-68282245D01*
X105289309Y-68287850D01*
X105280865Y-68434301D01*
X105277214Y-68497613D01*
X94854680Y-68497613D01*
X94724977Y-68355071D01*
X94720926Y-68351872D01*
X94720922Y-68351868D01*
X94551966Y-68218434D01*
X94551962Y-68218432D01*
X94547911Y-68215232D01*
X94350383Y-68106191D01*
X94137698Y-68030876D01*
X94087297Y-68021898D01*
X93920657Y-67992214D01*
X93920653Y-67992214D01*
X93915569Y-67991308D01*
X93843574Y-67990429D01*
X93695129Y-67988615D01*
X93695127Y-67988615D01*
X93689959Y-67988552D01*
X93466929Y-68022680D01*
X93252468Y-68092777D01*
X93052335Y-68196960D01*
X93048202Y-68200063D01*
X93048199Y-68200065D01*
X92938745Y-68282245D01*
X92871905Y-68332430D01*
X92716024Y-68495550D01*
X92713109Y-68499824D01*
X92713106Y-68499827D01*
X92619503Y-68637043D01*
X92564592Y-68682046D01*
X92494067Y-68690217D01*
X92430320Y-68658963D01*
X92409623Y-68634479D01*
X92407470Y-68631150D01*
X92336826Y-68521951D01*
X92184977Y-68355071D01*
X92180926Y-68351872D01*
X92180922Y-68351868D01*
X92011966Y-68218434D01*
X92011962Y-68218432D01*
X92007911Y-68215232D01*
X91810383Y-68106191D01*
X91597698Y-68030876D01*
X91547297Y-68021898D01*
X91380657Y-67992214D01*
X91380653Y-67992214D01*
X91375569Y-67991308D01*
X91303574Y-67990429D01*
X91155129Y-67988615D01*
X91155127Y-67988615D01*
X91149959Y-67988552D01*
X90926929Y-68022680D01*
X90712468Y-68092777D01*
X90512335Y-68196960D01*
X90508202Y-68200063D01*
X90508199Y-68200065D01*
X90398745Y-68282245D01*
X90331905Y-68332430D01*
X90328333Y-68336168D01*
X90268411Y-68398872D01*
X90206887Y-68434301D01*
X90135975Y-68430844D01*
X90078188Y-68389598D01*
X90059336Y-68356050D01*
X90023367Y-68260103D01*
X90020215Y-68251695D01*
X89932861Y-68135139D01*
X89816305Y-68047785D01*
X89679916Y-67996655D01*
X89617734Y-67989900D01*
X89465500Y-67989900D01*
X89397379Y-67969898D01*
X89350886Y-67916242D01*
X89339500Y-67863900D01*
X89339500Y-63799896D01*
X89359502Y-63731775D01*
X89413158Y-63685282D01*
X89425619Y-63680374D01*
X89589946Y-63625550D01*
X89740348Y-63532478D01*
X89826784Y-63445891D01*
X89889066Y-63411812D01*
X89959886Y-63416815D01*
X90004975Y-63445736D01*
X90035517Y-63476225D01*
X90092697Y-63533305D01*
X90098927Y-63537145D01*
X90098928Y-63537146D01*
X90236288Y-63621816D01*
X90243262Y-63626115D01*
X90323005Y-63652564D01*
X90404611Y-63679632D01*
X90404613Y-63679632D01*
X90411139Y-63681797D01*
X90417975Y-63682497D01*
X90417978Y-63682498D01*
X90461031Y-63686909D01*
X90515600Y-63692500D01*
X91316400Y-63692500D01*
X91319646Y-63692163D01*
X91319650Y-63692163D01*
X91415308Y-63682238D01*
X91415312Y-63682237D01*
X91422166Y-63681526D01*
X91428702Y-63679345D01*
X91428704Y-63679345D01*
X91560806Y-63635272D01*
X91589946Y-63625550D01*
X91667529Y-63577540D01*
X91734126Y-63536329D01*
X91734130Y-63536326D01*
X91740348Y-63532478D01*
X91743706Y-63529114D01*
X91808540Y-63502872D01*
X91878304Y-63516043D01*
X91898169Y-63528785D01*
X91902697Y-63533305D01*
X92000299Y-63593468D01*
X92046288Y-63621816D01*
X92053262Y-63626115D01*
X92133005Y-63652564D01*
X92214611Y-63679632D01*
X92214613Y-63679632D01*
X92221139Y-63681797D01*
X92227975Y-63682497D01*
X92227978Y-63682498D01*
X92271031Y-63686909D01*
X92325600Y-63692500D01*
X93076400Y-63692500D01*
X93079646Y-63692163D01*
X93079650Y-63692163D01*
X93175308Y-63682238D01*
X93175312Y-63682237D01*
X93182166Y-63681526D01*
X93188702Y-63679345D01*
X93188704Y-63679345D01*
X93320806Y-63635272D01*
X93349946Y-63625550D01*
X93500348Y-63532478D01*
X93625305Y-63407303D01*
X93628102Y-63402765D01*
X93685353Y-63362176D01*
X93756276Y-63358946D01*
X93817687Y-63394572D01*
X93825062Y-63403068D01*
X93833098Y-63413207D01*
X93947829Y-63527739D01*
X93959240Y-63536751D01*
X94097243Y-63621816D01*
X94110424Y-63627963D01*
X94264710Y-63679138D01*
X94278086Y-63682005D01*
X94372438Y-63691672D01*
X94378854Y-63692000D01*
X94478885Y-63692000D01*
X94494124Y-63687525D01*
X94495329Y-63686135D01*
X94497000Y-63678452D01*
X94497000Y-63673884D01*
X95005000Y-63673884D01*
X95009475Y-63689123D01*
X95010865Y-63690328D01*
X95018548Y-63691999D01*
X95123095Y-63691999D01*
X95129614Y-63691662D01*
X95225206Y-63681743D01*
X95238600Y-63678851D01*
X95392784Y-63627412D01*
X95405962Y-63621239D01*
X95543807Y-63535937D01*
X95555208Y-63526901D01*
X95669739Y-63412171D01*
X95678751Y-63400760D01*
X95763816Y-63262757D01*
X95769963Y-63249576D01*
X95821138Y-63095290D01*
X95824005Y-63081914D01*
X95833672Y-62987562D01*
X95834000Y-62981146D01*
X95834000Y-62756115D01*
X95829525Y-62740876D01*
X95828135Y-62739671D01*
X95820452Y-62738000D01*
X95023115Y-62738000D01*
X95007876Y-62742475D01*
X95006671Y-62743865D01*
X95005000Y-62751548D01*
X95005000Y-63673884D01*
X94497000Y-63673884D01*
X94497000Y-62211885D01*
X95005000Y-62211885D01*
X95009475Y-62227124D01*
X95010865Y-62228329D01*
X95018548Y-62230000D01*
X95815884Y-62230000D01*
X95831123Y-62225525D01*
X95832328Y-62224135D01*
X95833999Y-62216452D01*
X95833999Y-61986905D01*
X95833662Y-61980386D01*
X95823743Y-61884794D01*
X95820851Y-61871400D01*
X95769412Y-61717216D01*
X95763239Y-61704038D01*
X95677937Y-61566193D01*
X95668901Y-61554792D01*
X95554171Y-61440261D01*
X95542760Y-61431249D01*
X95404757Y-61346184D01*
X95391576Y-61340037D01*
X95237290Y-61288862D01*
X95223914Y-61285995D01*
X95129562Y-61276328D01*
X95123145Y-61276000D01*
X95023115Y-61276000D01*
X95007876Y-61280475D01*
X95006671Y-61281865D01*
X95005000Y-61289548D01*
X95005000Y-62211885D01*
X94497000Y-62211885D01*
X94497000Y-61294116D01*
X94492525Y-61278877D01*
X94491135Y-61277672D01*
X94483452Y-61276001D01*
X94378905Y-61276001D01*
X94372386Y-61276338D01*
X94276794Y-61286257D01*
X94263400Y-61289149D01*
X94109216Y-61340588D01*
X94096038Y-61346761D01*
X93958193Y-61432063D01*
X93946792Y-61441099D01*
X93832262Y-61555828D01*
X93825206Y-61564762D01*
X93767288Y-61605823D01*
X93696365Y-61609053D01*
X93634954Y-61573426D01*
X93628154Y-61565593D01*
X93624478Y-61559652D01*
X93499303Y-61434695D01*
X93405887Y-61377112D01*
X93354968Y-61345725D01*
X93354966Y-61345724D01*
X93348738Y-61341885D01*
X93268707Y-61315340D01*
X93187389Y-61288368D01*
X93187387Y-61288368D01*
X93180861Y-61286203D01*
X93174025Y-61285503D01*
X93174022Y-61285502D01*
X93130969Y-61281091D01*
X93076400Y-61275500D01*
X92325600Y-61275500D01*
X92322354Y-61275837D01*
X92322350Y-61275837D01*
X92226692Y-61285762D01*
X92226688Y-61285763D01*
X92219834Y-61286474D01*
X92213298Y-61288655D01*
X92213296Y-61288655D01*
X92133312Y-61315340D01*
X92052054Y-61342450D01*
X91996041Y-61377112D01*
X91907874Y-61431671D01*
X91907870Y-61431674D01*
X91901652Y-61435522D01*
X91898294Y-61438886D01*
X91833460Y-61465128D01*
X91763696Y-61451957D01*
X91743831Y-61439215D01*
X91739303Y-61434695D01*
X91611080Y-61355657D01*
X91594968Y-61345725D01*
X91594966Y-61345724D01*
X91588738Y-61341885D01*
X91508707Y-61315340D01*
X91427389Y-61288368D01*
X91427387Y-61288368D01*
X91420861Y-61286203D01*
X91414025Y-61285503D01*
X91414022Y-61285502D01*
X91370969Y-61281091D01*
X91316400Y-61275500D01*
X90515600Y-61275500D01*
X90512354Y-61275837D01*
X90512350Y-61275837D01*
X90416692Y-61285762D01*
X90416688Y-61285763D01*
X90409834Y-61286474D01*
X90403298Y-61288655D01*
X90403296Y-61288655D01*
X90323312Y-61315340D01*
X90242054Y-61342450D01*
X90091652Y-61435522D01*
X90086479Y-61440704D01*
X90005216Y-61522109D01*
X89942934Y-61556188D01*
X89872114Y-61551185D01*
X89827025Y-61522264D01*
X89744483Y-61439866D01*
X89739303Y-61434695D01*
X89645887Y-61377112D01*
X89594968Y-61345725D01*
X89594966Y-61345724D01*
X89588738Y-61341885D01*
X89508707Y-61315340D01*
X89427389Y-61288368D01*
X89427387Y-61288368D01*
X89420861Y-61286203D01*
X89414025Y-61285503D01*
X89414022Y-61285502D01*
X89370969Y-61281091D01*
X89316400Y-61275500D01*
X88515600Y-61275500D01*
X88512354Y-61275837D01*
X88512350Y-61275837D01*
X88416692Y-61285762D01*
X88416688Y-61285763D01*
X88409834Y-61286474D01*
X88403298Y-61288655D01*
X88403296Y-61288655D01*
X88323312Y-61315340D01*
X88242054Y-61342450D01*
X88091652Y-61435522D01*
X87966695Y-61560697D01*
X87962855Y-61566927D01*
X87962854Y-61566928D01*
X87879250Y-61702559D01*
X87873885Y-61711262D01*
X87871581Y-61718209D01*
X87825103Y-61858337D01*
X87818203Y-61879139D01*
X87807500Y-61983600D01*
X87807500Y-62984400D01*
X87807837Y-62987646D01*
X87807837Y-62987650D01*
X87817618Y-63081914D01*
X87818474Y-63090166D01*
X87820655Y-63096702D01*
X87820655Y-63096704D01*
X87841888Y-63160346D01*
X87874450Y-63257946D01*
X87967522Y-63408348D01*
X87972704Y-63413521D01*
X87972708Y-63413526D01*
X88035517Y-63476225D01*
X88069597Y-63538507D01*
X88072500Y-63565398D01*
X88072500Y-67863900D01*
X88052498Y-67932021D01*
X87998842Y-67978514D01*
X87946500Y-67989900D01*
X87794266Y-67989900D01*
X87732084Y-67996655D01*
X87595695Y-68047785D01*
X87479139Y-68135139D01*
X87391785Y-68251695D01*
X87340655Y-68388084D01*
X87333900Y-68450266D01*
X87333900Y-70273734D01*
X76434170Y-70273734D01*
X77136500Y-69571405D01*
X77198812Y-69537379D01*
X77225595Y-69534500D01*
X77886400Y-69534500D01*
X77889646Y-69534163D01*
X77889650Y-69534163D01*
X77985308Y-69524238D01*
X77985312Y-69524237D01*
X77992166Y-69523526D01*
X77998702Y-69521345D01*
X77998704Y-69521345D01*
X78152998Y-69469868D01*
X78159946Y-69467550D01*
X78310348Y-69374478D01*
X78322804Y-69362000D01*
X78397138Y-69287537D01*
X78459421Y-69253458D01*
X78530241Y-69258461D01*
X78575329Y-69287382D01*
X78657829Y-69369739D01*
X78669240Y-69378751D01*
X78807243Y-69463816D01*
X78820424Y-69469963D01*
X78974710Y-69521138D01*
X78988086Y-69524005D01*
X79082438Y-69533672D01*
X79088854Y-69534000D01*
X79213885Y-69534000D01*
X79229124Y-69529525D01*
X79230329Y-69528135D01*
X79232000Y-69520452D01*
X79232000Y-69515884D01*
X79740000Y-69515884D01*
X79744475Y-69531123D01*
X79745865Y-69532328D01*
X79753548Y-69533999D01*
X79883095Y-69533999D01*
X79889614Y-69533662D01*
X79985206Y-69523743D01*
X79998600Y-69520851D01*
X80152784Y-69469412D01*
X80165962Y-69463239D01*
X80303807Y-69377937D01*
X80315208Y-69368901D01*
X80429739Y-69254171D01*
X80438751Y-69242760D01*
X80523816Y-69104757D01*
X80529963Y-69091576D01*
X80581138Y-68937290D01*
X80584005Y-68923914D01*
X80593672Y-68829562D01*
X80594000Y-68823146D01*
X80594000Y-68598115D01*
X80589525Y-68582876D01*
X80588135Y-68581671D01*
X80580452Y-68580000D01*
X79758115Y-68580000D01*
X79742876Y-68584475D01*
X79741671Y-68585865D01*
X79740000Y-68593548D01*
X79740000Y-69515884D01*
X79232000Y-69515884D01*
X79232000Y-68053885D01*
X79740000Y-68053885D01*
X79744475Y-68069124D01*
X79745865Y-68070329D01*
X79753548Y-68072000D01*
X80575884Y-68072000D01*
X80591123Y-68067525D01*
X80592328Y-68066135D01*
X80593999Y-68058452D01*
X80593999Y-67828905D01*
X80593662Y-67822386D01*
X80583743Y-67726794D01*
X80580851Y-67713400D01*
X80529412Y-67559216D01*
X80523239Y-67546038D01*
X80437937Y-67408193D01*
X80428901Y-67396792D01*
X80314171Y-67282261D01*
X80302760Y-67273249D01*
X80164757Y-67188184D01*
X80151576Y-67182037D01*
X79997290Y-67130862D01*
X79983914Y-67127995D01*
X79889562Y-67118328D01*
X79883145Y-67118000D01*
X79758115Y-67118000D01*
X79742876Y-67122475D01*
X79741671Y-67123865D01*
X79740000Y-67131548D01*
X79740000Y-68053885D01*
X79232000Y-68053885D01*
X79232000Y-67136116D01*
X79227525Y-67120877D01*
X79226135Y-67119672D01*
X79218452Y-67118001D01*
X79088905Y-67118001D01*
X79082386Y-67118338D01*
X78986794Y-67128257D01*
X78973400Y-67131149D01*
X78819216Y-67182588D01*
X78806038Y-67188761D01*
X78668193Y-67274063D01*
X78656792Y-67283099D01*
X78575570Y-67364462D01*
X78513287Y-67398541D01*
X78442467Y-67393538D01*
X78397380Y-67364617D01*
X78314488Y-67281870D01*
X78314483Y-67281866D01*
X78309303Y-67276695D01*
X78290804Y-67265292D01*
X78164968Y-67187725D01*
X78164966Y-67187724D01*
X78158738Y-67183885D01*
X78078995Y-67157436D01*
X77997389Y-67130368D01*
X77997387Y-67130368D01*
X77990861Y-67128203D01*
X77984025Y-67127503D01*
X77984022Y-67127502D01*
X77940969Y-67123091D01*
X77886400Y-67117500D01*
X77225594Y-67117500D01*
X77157473Y-67097498D01*
X77136499Y-67080595D01*
X76124405Y-66068500D01*
X76090379Y-66006188D01*
X76087500Y-65979405D01*
X76087500Y-63720781D01*
X76107502Y-63652660D01*
X76147197Y-63613637D01*
X76272120Y-63536332D01*
X76278348Y-63532478D01*
X76364784Y-63445891D01*
X76427066Y-63411812D01*
X76497886Y-63416815D01*
X76542975Y-63445736D01*
X76573517Y-63476225D01*
X76630697Y-63533305D01*
X76636927Y-63537145D01*
X76636928Y-63537146D01*
X76774288Y-63621816D01*
X76781262Y-63626115D01*
X76861005Y-63652564D01*
X76942611Y-63679632D01*
X76942613Y-63679632D01*
X76949139Y-63681797D01*
X76955975Y-63682497D01*
X76955978Y-63682498D01*
X76999031Y-63686909D01*
X77053600Y-63692500D01*
X77854400Y-63692500D01*
X77857646Y-63692163D01*
X77857650Y-63692163D01*
X77953308Y-63682238D01*
X77953312Y-63682237D01*
X77960166Y-63681526D01*
X77966702Y-63679345D01*
X77966704Y-63679345D01*
X78098806Y-63635272D01*
X78127946Y-63625550D01*
X78278348Y-63532478D01*
X78403305Y-63407303D01*
X78496115Y-63256738D01*
X78546850Y-63103776D01*
X78549632Y-63095389D01*
X78549632Y-63095387D01*
X78551797Y-63088861D01*
X78562500Y-62984400D01*
X78562500Y-61983600D01*
X78552371Y-61885978D01*
X78552238Y-61884692D01*
X78552237Y-61884688D01*
X78551526Y-61877834D01*
X78521055Y-61786500D01*
X78497868Y-61717002D01*
X78495550Y-61710054D01*
X78402478Y-61559652D01*
X78277303Y-61434695D01*
X78183887Y-61377112D01*
X78147384Y-61354611D01*
X78099890Y-61301838D01*
X78087500Y-61247351D01*
X78087500Y-59656781D01*
X78107502Y-59588660D01*
X78147197Y-59549637D01*
X78272120Y-59472332D01*
X78278348Y-59468478D01*
X78403305Y-59343303D01*
X78453991Y-59261075D01*
X78492275Y-59198968D01*
X78492276Y-59198966D01*
X78496115Y-59192738D01*
X78513663Y-59139832D01*
X78554094Y-59081473D01*
X78619658Y-59054236D01*
X78633256Y-59053500D01*
X100269406Y-59053500D01*
X100337527Y-59073502D01*
X100358501Y-59090405D01*
X104744595Y-63476499D01*
X104778621Y-63538811D01*
X104781500Y-63565594D01*
X104781500Y-66107634D01*
X104788255Y-66169816D01*
X104839385Y-66306205D01*
X104926739Y-66422761D01*
X105043295Y-66510115D01*
X105179684Y-66561245D01*
X105241866Y-66568000D01*
X107138134Y-66568000D01*
X107200316Y-66561245D01*
X107336705Y-66510115D01*
X107453261Y-66422761D01*
X107540615Y-66306205D01*
X107591745Y-66169816D01*
X107598500Y-66107634D01*
X107598500Y-66104169D01*
X111532001Y-66104169D01*
X111532371Y-66110990D01*
X111537895Y-66161852D01*
X111541521Y-66177104D01*
X111586676Y-66297554D01*
X111595214Y-66313149D01*
X111671715Y-66415224D01*
X111684276Y-66427785D01*
X111786351Y-66504286D01*
X111801946Y-66512824D01*
X111922394Y-66557978D01*
X111937649Y-66561605D01*
X111988514Y-66567131D01*
X111995328Y-66567500D01*
X112667885Y-66567500D01*
X112683124Y-66563025D01*
X112684329Y-66561635D01*
X112686000Y-66553952D01*
X112686000Y-65031615D01*
X112681525Y-65016376D01*
X112680135Y-65015171D01*
X112672452Y-65013500D01*
X111550116Y-65013500D01*
X111534877Y-65017975D01*
X111533672Y-65019365D01*
X111532001Y-65027048D01*
X111532001Y-66104169D01*
X107598500Y-66104169D01*
X107598500Y-64487385D01*
X111532000Y-64487385D01*
X111536475Y-64502624D01*
X111537865Y-64503829D01*
X111545548Y-64505500D01*
X112667885Y-64505500D01*
X112683124Y-64501025D01*
X112684329Y-64499635D01*
X112686000Y-64491952D01*
X112686000Y-62969616D01*
X112681525Y-62954377D01*
X112680135Y-62953172D01*
X112672452Y-62951501D01*
X111995331Y-62951501D01*
X111988510Y-62951871D01*
X111937648Y-62957395D01*
X111922396Y-62961021D01*
X111801946Y-63006176D01*
X111786351Y-63014714D01*
X111684276Y-63091215D01*
X111671715Y-63103776D01*
X111595214Y-63205851D01*
X111586676Y-63221446D01*
X111541522Y-63341894D01*
X111537895Y-63357149D01*
X111532369Y-63408014D01*
X111532000Y-63414828D01*
X111532000Y-64487385D01*
X107598500Y-64487385D01*
X107598500Y-63411366D01*
X107591745Y-63349184D01*
X107540615Y-63212795D01*
X107453261Y-63096239D01*
X107336705Y-63008885D01*
X107200316Y-62957755D01*
X107138134Y-62951000D01*
X106063095Y-62951000D01*
X105994974Y-62930998D01*
X105974000Y-62914095D01*
X101087652Y-58027747D01*
X101080112Y-58019461D01*
X101076000Y-58012982D01*
X101026348Y-57966356D01*
X101023507Y-57963602D01*
X101003770Y-57943865D01*
X101000573Y-57941385D01*
X100991551Y-57933680D01*
X100965100Y-57908841D01*
X100959321Y-57903414D01*
X100952375Y-57899595D01*
X100952372Y-57899593D01*
X100941566Y-57893652D01*
X100925047Y-57882801D01*
X100924583Y-57882441D01*
X100909041Y-57870386D01*
X100901772Y-57867241D01*
X100901768Y-57867238D01*
X100868463Y-57852826D01*
X100857813Y-57847609D01*
X100819060Y-57826305D01*
X100799437Y-57821267D01*
X100780734Y-57814863D01*
X100769420Y-57809967D01*
X100769419Y-57809967D01*
X100762145Y-57806819D01*
X100754322Y-57805580D01*
X100754312Y-57805577D01*
X100718476Y-57799901D01*
X100706856Y-57797495D01*
X100671711Y-57788472D01*
X100671710Y-57788472D01*
X100664030Y-57786500D01*
X100643776Y-57786500D01*
X100624065Y-57784949D01*
X100611886Y-57783020D01*
X100604057Y-57781780D01*
X100596165Y-57782526D01*
X100560039Y-57785941D01*
X100548181Y-57786500D01*
X78633197Y-57786500D01*
X78565076Y-57766498D01*
X78518583Y-57712842D01*
X78513674Y-57700377D01*
X78497867Y-57652998D01*
X78497866Y-57652996D01*
X78495550Y-57646054D01*
X78402478Y-57495652D01*
X78277303Y-57370695D01*
X78271072Y-57366854D01*
X78132968Y-57281725D01*
X78132966Y-57281724D01*
X78126738Y-57277885D01*
X77966254Y-57224655D01*
X77965389Y-57224368D01*
X77965387Y-57224368D01*
X77958861Y-57222203D01*
X77952025Y-57221503D01*
X77952022Y-57221502D01*
X77908969Y-57217091D01*
X77854400Y-57211500D01*
X77053600Y-57211500D01*
X77050354Y-57211837D01*
X77050350Y-57211837D01*
X76954692Y-57221762D01*
X76954688Y-57221763D01*
X76947834Y-57222474D01*
X76941298Y-57224655D01*
X76941296Y-57224655D01*
X76809194Y-57268728D01*
X76780054Y-57278450D01*
X76629652Y-57371522D01*
X76624479Y-57376704D01*
X76543216Y-57458109D01*
X76480934Y-57492188D01*
X76410114Y-57487185D01*
X76365025Y-57458264D01*
X76282483Y-57375866D01*
X76277303Y-57370695D01*
X76271072Y-57366854D01*
X76132968Y-57281725D01*
X76132966Y-57281724D01*
X76126738Y-57277885D01*
X75966254Y-57224655D01*
X75965389Y-57224368D01*
X75965387Y-57224368D01*
X75958861Y-57222203D01*
X75952025Y-57221503D01*
X75952022Y-57221502D01*
X75908969Y-57217091D01*
X75854400Y-57211500D01*
X75053600Y-57211500D01*
X75050354Y-57211837D01*
X75050350Y-57211837D01*
X74954692Y-57221762D01*
X74954688Y-57221763D01*
X74947834Y-57222474D01*
X74941298Y-57224655D01*
X74941296Y-57224655D01*
X74809194Y-57268728D01*
X74780054Y-57278450D01*
X74629652Y-57371522D01*
X74504695Y-57496697D01*
X74500855Y-57502927D01*
X74500854Y-57502928D01*
X74425910Y-57624510D01*
X74411885Y-57647262D01*
X74394337Y-57700168D01*
X74353906Y-57758527D01*
X74288342Y-57785764D01*
X74274744Y-57786500D01*
X73115461Y-57786500D01*
X73047340Y-57766498D01*
X73000847Y-57712842D01*
X72996688Y-57702559D01*
X72969050Y-57624510D01*
X72969047Y-57624502D01*
X72967617Y-57620465D01*
X72906411Y-57501880D01*
X72843978Y-57380919D01*
X72843978Y-57380918D01*
X72842013Y-57377112D01*
X72838085Y-57371522D01*
X72733141Y-57222203D01*
X72684545Y-57153057D01*
X72498125Y-56952445D01*
X72494810Y-56949731D01*
X72494806Y-56949728D01*
X72289523Y-56781706D01*
X72286205Y-56778990D01*
X72052704Y-56635901D01*
X72048768Y-56634173D01*
X71805873Y-56527549D01*
X71805869Y-56527548D01*
X71801945Y-56525825D01*
X71538566Y-56450800D01*
X71534324Y-56450196D01*
X71534318Y-56450195D01*
X71333834Y-56421662D01*
X71267443Y-56412213D01*
X71123589Y-56411460D01*
X70997877Y-56410802D01*
X70997871Y-56410802D01*
X70993591Y-56410780D01*
X70989347Y-56411339D01*
X70989343Y-56411339D01*
X70870302Y-56427011D01*
X70722078Y-56446525D01*
X70717938Y-56447658D01*
X70717936Y-56447658D01*
X70645008Y-56467609D01*
X70457928Y-56518788D01*
X70453980Y-56520472D01*
X70209982Y-56624546D01*
X70209978Y-56624548D01*
X70206030Y-56626232D01*
X70186125Y-56638145D01*
X69974725Y-56764664D01*
X69974721Y-56764667D01*
X69971043Y-56766868D01*
X69757318Y-56938094D01*
X69568808Y-57136742D01*
X69409002Y-57359136D01*
X69280857Y-57601161D01*
X69279385Y-57605184D01*
X69279383Y-57605188D01*
X69205596Y-57806819D01*
X69186743Y-57858337D01*
X69128404Y-58125907D01*
X69106917Y-58398918D01*
X69122682Y-58672320D01*
X69123507Y-58676525D01*
X69123508Y-58676533D01*
X69153917Y-58831526D01*
X69175405Y-58941053D01*
X69176792Y-58945103D01*
X69176793Y-58945108D01*
X69259612Y-59187002D01*
X69264112Y-59200144D01*
X69387160Y-59444799D01*
X69389586Y-59448328D01*
X69389589Y-59448334D01*
X69506059Y-59617797D01*
X69542274Y-59670490D01*
X69726582Y-59873043D01*
X69936675Y-60048707D01*
X69940316Y-60050991D01*
X70165024Y-60191951D01*
X70165028Y-60191953D01*
X70168664Y-60194234D01*
X70232907Y-60223241D01*
X70417204Y-60306455D01*
X70471058Y-60352718D01*
X70491352Y-60420753D01*
X70471642Y-60488958D01*
X70414788Y-60537189D01*
X70209982Y-60624546D01*
X70209978Y-60624548D01*
X70206030Y-60626232D01*
X70186125Y-60638145D01*
X69974725Y-60764664D01*
X69974721Y-60764667D01*
X69971043Y-60766868D01*
X69757318Y-60938094D01*
X69568808Y-61136742D01*
X69409002Y-61359136D01*
X69280857Y-61601161D01*
X69279385Y-61605184D01*
X69279383Y-61605188D01*
X69220156Y-61767033D01*
X69186743Y-61858337D01*
X69128404Y-62125907D01*
X69106917Y-62398918D01*
X69122682Y-62672320D01*
X69123507Y-62676525D01*
X69123508Y-62676533D01*
X69136718Y-62743865D01*
X69175405Y-62941053D01*
X69176792Y-62945103D01*
X69176793Y-62945108D01*
X69231118Y-63103777D01*
X69264112Y-63200144D01*
X69267200Y-63206283D01*
X69373086Y-63416815D01*
X69387160Y-63444799D01*
X69389586Y-63448328D01*
X69389589Y-63448334D01*
X69513046Y-63627963D01*
X69542274Y-63670490D01*
X69545161Y-63673663D01*
X69545162Y-63673664D01*
X69561846Y-63692000D01*
X69726582Y-63873043D01*
X69936675Y-64048707D01*
X69940316Y-64050991D01*
X70165024Y-64191951D01*
X70165028Y-64191953D01*
X70168664Y-64194234D01*
X70236544Y-64224883D01*
X70414345Y-64305164D01*
X70414349Y-64305166D01*
X70418257Y-64306930D01*
X70422377Y-64308150D01*
X70422376Y-64308150D01*
X70676723Y-64383491D01*
X70676727Y-64383492D01*
X70680836Y-64384709D01*
X70685070Y-64385357D01*
X70685075Y-64385358D01*
X70947298Y-64425483D01*
X70947300Y-64425483D01*
X70951540Y-64426132D01*
X71090912Y-64428322D01*
X71221071Y-64430367D01*
X71221077Y-64430367D01*
X71225362Y-64430434D01*
X71497235Y-64397534D01*
X71762127Y-64328041D01*
X71766087Y-64326401D01*
X71766092Y-64326399D01*
X71888632Y-64275641D01*
X72015136Y-64223241D01*
X72251582Y-64085073D01*
X72467089Y-63916094D01*
X72508809Y-63873043D01*
X72654686Y-63722509D01*
X72657669Y-63719431D01*
X72660202Y-63715983D01*
X72660206Y-63715978D01*
X72817257Y-63502178D01*
X72819795Y-63498723D01*
X72831862Y-63476499D01*
X72948418Y-63261830D01*
X72948419Y-63261828D01*
X72950468Y-63258054D01*
X72996980Y-63134963D01*
X73039769Y-63078310D01*
X73106395Y-63053784D01*
X73114846Y-63053500D01*
X74253451Y-63053500D01*
X74321572Y-63073502D01*
X74368065Y-63127158D01*
X74372972Y-63139616D01*
X74412450Y-63257946D01*
X74505522Y-63408348D01*
X74630697Y-63533305D01*
X74636927Y-63537145D01*
X74636928Y-63537146D01*
X74760616Y-63613389D01*
X74808110Y-63666162D01*
X74820500Y-63720649D01*
X74820500Y-66215233D01*
X74819973Y-66226416D01*
X74818298Y-66233909D01*
X74818547Y-66241835D01*
X74818547Y-66241836D01*
X74820438Y-66301986D01*
X74820500Y-66305945D01*
X74820500Y-66333856D01*
X74820997Y-66337790D01*
X74820997Y-66337791D01*
X74821005Y-66337856D01*
X74821938Y-66349693D01*
X74823327Y-66393889D01*
X74828978Y-66413339D01*
X74832987Y-66432700D01*
X74835526Y-66452797D01*
X74838445Y-66460168D01*
X74838445Y-66460170D01*
X74851804Y-66493912D01*
X74855649Y-66505142D01*
X74865771Y-66539983D01*
X74867982Y-66547593D01*
X74872015Y-66554412D01*
X74872017Y-66554417D01*
X74878293Y-66565028D01*
X74886988Y-66582776D01*
X74894448Y-66601617D01*
X74899110Y-66608033D01*
X74899110Y-66608034D01*
X74920436Y-66637387D01*
X74926952Y-66647307D01*
X74949458Y-66685362D01*
X74963779Y-66699683D01*
X74976619Y-66714716D01*
X74988528Y-66731107D01*
X74994634Y-66736158D01*
X75022605Y-66759298D01*
X75031384Y-66767288D01*
X76340595Y-68076500D01*
X76374621Y-68138812D01*
X76377500Y-68165595D01*
X76377500Y-68486406D01*
X76357498Y-68554527D01*
X76340595Y-68575501D01*
X75061747Y-69854348D01*
X75053461Y-69861888D01*
X75046982Y-69866000D01*
X75041557Y-69871777D01*
X75000357Y-69915651D01*
X74997602Y-69918493D01*
X74977865Y-69938230D01*
X74975385Y-69941427D01*
X74967682Y-69950447D01*
X74937414Y-69982679D01*
X74933595Y-69989625D01*
X74933593Y-69989628D01*
X74927652Y-70000434D01*
X74916801Y-70016953D01*
X74904386Y-70032959D01*
X74901241Y-70040228D01*
X74901238Y-70040232D01*
X74886826Y-70073537D01*
X74881609Y-70084187D01*
X74860305Y-70122940D01*
X74858334Y-70130615D01*
X74858334Y-70130616D01*
X74855267Y-70142562D01*
X74848863Y-70161266D01*
X74840819Y-70179855D01*
X74839580Y-70187678D01*
X74839577Y-70187688D01*
X74833901Y-70223524D01*
X74831495Y-70235144D01*
X74825632Y-70257980D01*
X74820500Y-70277970D01*
X74820500Y-70298224D01*
X74818949Y-70317934D01*
X74815780Y-70337943D01*
X74816526Y-70345835D01*
X74819941Y-70381961D01*
X74820500Y-70393819D01*
X74820500Y-72423219D01*
X74800498Y-72491340D01*
X74760803Y-72530363D01*
X74629652Y-72611522D01*
X74504695Y-72736697D01*
X74500855Y-72742927D01*
X74500854Y-72742928D01*
X74424586Y-72866658D01*
X74411885Y-72887262D01*
X74401358Y-72919000D01*
X74394337Y-72940168D01*
X74353906Y-72998527D01*
X74288342Y-73025764D01*
X74274744Y-73026500D01*
X73115461Y-73026500D01*
X73047340Y-73006498D01*
X73000847Y-72952842D01*
X72996688Y-72942559D01*
X72969050Y-72864510D01*
X72969047Y-72864502D01*
X72967617Y-72860465D01*
X72906411Y-72741880D01*
X72843978Y-72620919D01*
X72843978Y-72620918D01*
X72842013Y-72617112D01*
X72838085Y-72611522D01*
X72733141Y-72462203D01*
X72684545Y-72393057D01*
X72566856Y-72266408D01*
X72501046Y-72195588D01*
X72501043Y-72195585D01*
X72498125Y-72192445D01*
X72494810Y-72189731D01*
X72494806Y-72189728D01*
X72289523Y-72021706D01*
X72286205Y-72018990D01*
X72052704Y-71875901D01*
X72047303Y-71873530D01*
X71805873Y-71767549D01*
X71805869Y-71767548D01*
X71801945Y-71765825D01*
X71538566Y-71690800D01*
X71534324Y-71690196D01*
X71534318Y-71690195D01*
X71326119Y-71660564D01*
X71267443Y-71652213D01*
X71123589Y-71651460D01*
X70997877Y-71650802D01*
X70997871Y-71650802D01*
X70993591Y-71650780D01*
X70989347Y-71651339D01*
X70989343Y-71651339D01*
X70919273Y-71660564D01*
X70722078Y-71686525D01*
X70717938Y-71687658D01*
X70717936Y-71687658D01*
X70672321Y-71700137D01*
X70457928Y-71758788D01*
X70453980Y-71760472D01*
X70209982Y-71864546D01*
X70209978Y-71864548D01*
X70206030Y-71866232D01*
X70140645Y-71905364D01*
X69974725Y-72004664D01*
X69974721Y-72004667D01*
X69971043Y-72006868D01*
X69757318Y-72178094D01*
X69568808Y-72376742D01*
X69409002Y-72599136D01*
X69280857Y-72841161D01*
X69279385Y-72845184D01*
X69279383Y-72845188D01*
X69191763Y-73084618D01*
X69186743Y-73098337D01*
X69128404Y-73365907D01*
X69106917Y-73638918D01*
X69122682Y-73912320D01*
X69123507Y-73916525D01*
X69123508Y-73916533D01*
X69133606Y-73968000D01*
X69175405Y-74181053D01*
X69176792Y-74185103D01*
X69176793Y-74185108D01*
X69239123Y-74367158D01*
X69264112Y-74440144D01*
X69387160Y-74684799D01*
X69389586Y-74688328D01*
X69389589Y-74688334D01*
X69506059Y-74857797D01*
X69542274Y-74910490D01*
X69726582Y-75113043D01*
X69936675Y-75288707D01*
X69940316Y-75290991D01*
X70165024Y-75431951D01*
X70165028Y-75431953D01*
X70168664Y-75434234D01*
X70232907Y-75463241D01*
X70417204Y-75546455D01*
X70471058Y-75592718D01*
X70491352Y-75660753D01*
X70471642Y-75728958D01*
X70414788Y-75777189D01*
X70209982Y-75864546D01*
X70209978Y-75864548D01*
X70206030Y-75866232D01*
X70186125Y-75878145D01*
X69974725Y-76004664D01*
X69974721Y-76004667D01*
X69971043Y-76006868D01*
X69757318Y-76178094D01*
X69568808Y-76376742D01*
X69409002Y-76599136D01*
X69280857Y-76841161D01*
X69279385Y-76845184D01*
X69279383Y-76845188D01*
X69189611Y-77090500D01*
X69186743Y-77098337D01*
X69128404Y-77365907D01*
X69106917Y-77638918D01*
X68580500Y-77638918D01*
X68580500Y-56260000D01*
X68600502Y-56191879D01*
X68654158Y-56145386D01*
X68706500Y-56134000D01*
X114426695Y-56134000D01*
X114494816Y-56154002D01*
G37*
%TD.AperFunction*%
%TD*%
M02*
