%TF.GenerationSoftware,KiCad,Pcbnew,(6.0.4)*%
%TF.CreationDate,2022-07-05T22:15:58-06:00*%
%TF.ProjectId,fourPostScematic,666f7572-506f-4737-9453-63656d617469,rev?*%
%TF.SameCoordinates,Original*%
%TF.FileFunction,Legend,Bot*%
%TF.FilePolarity,Positive*%
%FSLAX46Y46*%
G04 Gerber Fmt 4.6, Leading zero omitted, Abs format (unit mm)*
G04 Created by KiCad (PCBNEW (6.0.4)) date 2022-07-05 22:15:58*
%MOMM*%
%LPD*%
G01*
G04 APERTURE LIST*
%TA.AperFunction,Profile*%
%ADD10C,0.100000*%
%TD*%
%ADD11C,0.150000*%
G04 APERTURE END LIST*
D10*
X68072000Y-55372000D02*
X115062000Y-55372000D01*
X115062000Y-55372000D02*
X115062000Y-81534000D01*
X115062000Y-81534000D02*
X68072000Y-81534000D01*
X68072000Y-81534000D02*
X68072000Y-55372000D01*
D11*
X113029523Y-57400714D02*
X112839047Y-58067380D01*
X112648571Y-57591190D01*
X112458095Y-58067380D01*
X112267619Y-57400714D01*
X111743809Y-58067380D02*
X111839047Y-58019761D01*
X111886666Y-57972142D01*
X111934285Y-57876904D01*
X111934285Y-57591190D01*
X111886666Y-57495952D01*
X111839047Y-57448333D01*
X111743809Y-57400714D01*
X111600952Y-57400714D01*
X111505714Y-57448333D01*
X111458095Y-57495952D01*
X111410476Y-57591190D01*
X111410476Y-57876904D01*
X111458095Y-57972142D01*
X111505714Y-58019761D01*
X111600952Y-58067380D01*
X111743809Y-58067380D01*
X111124761Y-57400714D02*
X110743809Y-57400714D01*
X110981904Y-57067380D02*
X110981904Y-57924523D01*
X110934285Y-58019761D01*
X110839047Y-58067380D01*
X110743809Y-58067380D01*
X110410476Y-58067380D02*
X110410476Y-57067380D01*
X109981904Y-58067380D02*
X109981904Y-57543571D01*
X110029523Y-57448333D01*
X110124761Y-57400714D01*
X110267619Y-57400714D01*
X110362857Y-57448333D01*
X110410476Y-57495952D01*
X109124761Y-58019761D02*
X109220000Y-58067380D01*
X109410476Y-58067380D01*
X109505714Y-58019761D01*
X109553333Y-57924523D01*
X109553333Y-57543571D01*
X109505714Y-57448333D01*
X109410476Y-57400714D01*
X109220000Y-57400714D01*
X109124761Y-57448333D01*
X109077142Y-57543571D01*
X109077142Y-57638809D01*
X109553333Y-57734047D01*
X108648571Y-58067380D02*
X108648571Y-57400714D01*
X108648571Y-57591190D02*
X108600952Y-57495952D01*
X108553333Y-57448333D01*
X108458095Y-57400714D01*
X108362857Y-57400714D01*
X108029523Y-57972142D02*
X107981904Y-58019761D01*
X108029523Y-58067380D01*
X108077142Y-58019761D01*
X108029523Y-57972142D01*
X108029523Y-58067380D01*
X107124761Y-58067380D02*
X107124761Y-57067380D01*
X107124761Y-58019761D02*
X107220000Y-58067380D01*
X107410476Y-58067380D01*
X107505714Y-58019761D01*
X107553333Y-57972142D01*
X107600952Y-57876904D01*
X107600952Y-57591190D01*
X107553333Y-57495952D01*
X107505714Y-57448333D01*
X107410476Y-57400714D01*
X107220000Y-57400714D01*
X107124761Y-57448333D01*
X106267619Y-58019761D02*
X106362857Y-58067380D01*
X106553333Y-58067380D01*
X106648571Y-58019761D01*
X106696190Y-57924523D01*
X106696190Y-57543571D01*
X106648571Y-57448333D01*
X106553333Y-57400714D01*
X106362857Y-57400714D01*
X106267619Y-57448333D01*
X106220000Y-57543571D01*
X106220000Y-57638809D01*
X106696190Y-57734047D01*
X105886666Y-57400714D02*
X105648571Y-58067380D01*
X105410476Y-57400714D01*
X114624761Y-59010714D02*
X114434285Y-59677380D01*
X114243809Y-59201190D01*
X114053333Y-59677380D01*
X113862857Y-59010714D01*
X113339047Y-59677380D02*
X113434285Y-59629761D01*
X113481904Y-59582142D01*
X113529523Y-59486904D01*
X113529523Y-59201190D01*
X113481904Y-59105952D01*
X113434285Y-59058333D01*
X113339047Y-59010714D01*
X113196190Y-59010714D01*
X113100952Y-59058333D01*
X113053333Y-59105952D01*
X113005714Y-59201190D01*
X113005714Y-59486904D01*
X113053333Y-59582142D01*
X113100952Y-59629761D01*
X113196190Y-59677380D01*
X113339047Y-59677380D01*
X112720000Y-59010714D02*
X112339047Y-59010714D01*
X112577142Y-58677380D02*
X112577142Y-59534523D01*
X112529523Y-59629761D01*
X112434285Y-59677380D01*
X112339047Y-59677380D01*
X112005714Y-59677380D02*
X112005714Y-58677380D01*
X111577142Y-59677380D02*
X111577142Y-59153571D01*
X111624761Y-59058333D01*
X111720000Y-59010714D01*
X111862857Y-59010714D01*
X111958095Y-59058333D01*
X112005714Y-59105952D01*
X110720000Y-59629761D02*
X110815238Y-59677380D01*
X111005714Y-59677380D01*
X111100952Y-59629761D01*
X111148571Y-59534523D01*
X111148571Y-59153571D01*
X111100952Y-59058333D01*
X111005714Y-59010714D01*
X110815238Y-59010714D01*
X110720000Y-59058333D01*
X110672380Y-59153571D01*
X110672380Y-59248809D01*
X111148571Y-59344047D01*
X110243809Y-59677380D02*
X110243809Y-59010714D01*
X110243809Y-59201190D02*
X110196190Y-59105952D01*
X110148571Y-59058333D01*
X110053333Y-59010714D01*
X109958095Y-59010714D01*
X109005714Y-59201190D02*
X109053333Y-59153571D01*
X109148571Y-59105952D01*
X109243809Y-59105952D01*
X109339047Y-59153571D01*
X109386666Y-59201190D01*
X109434285Y-59296428D01*
X109434285Y-59391666D01*
X109386666Y-59486904D01*
X109339047Y-59534523D01*
X109243809Y-59582142D01*
X109148571Y-59582142D01*
X109053333Y-59534523D01*
X109005714Y-59486904D01*
X109005714Y-59105952D02*
X109005714Y-59486904D01*
X108958095Y-59534523D01*
X108910476Y-59534523D01*
X108815238Y-59486904D01*
X108767619Y-59391666D01*
X108767619Y-59153571D01*
X108862857Y-59010714D01*
X109005714Y-58915476D01*
X109196190Y-58867857D01*
X109386666Y-58915476D01*
X109529523Y-59010714D01*
X109624761Y-59153571D01*
X109672380Y-59344047D01*
X109624761Y-59534523D01*
X109529523Y-59677380D01*
X109386666Y-59772619D01*
X109196190Y-59820238D01*
X109005714Y-59772619D01*
X108862857Y-59677380D01*
X108339047Y-59010714D02*
X108339047Y-60010714D01*
X108339047Y-59058333D02*
X108243809Y-59010714D01*
X108053333Y-59010714D01*
X107958095Y-59058333D01*
X107910476Y-59105952D01*
X107862857Y-59201190D01*
X107862857Y-59486904D01*
X107910476Y-59582142D01*
X107958095Y-59629761D01*
X108053333Y-59677380D01*
X108243809Y-59677380D01*
X108339047Y-59629761D01*
X107434285Y-59677380D02*
X107434285Y-59010714D01*
X107434285Y-59105952D02*
X107386666Y-59058333D01*
X107291428Y-59010714D01*
X107148571Y-59010714D01*
X107053333Y-59058333D01*
X107005714Y-59153571D01*
X107005714Y-59677380D01*
X107005714Y-59153571D02*
X106958095Y-59058333D01*
X106862857Y-59010714D01*
X106720000Y-59010714D01*
X106624761Y-59058333D01*
X106577142Y-59153571D01*
X106577142Y-59677380D01*
X106100952Y-59582142D02*
X106053333Y-59629761D01*
X106100952Y-59677380D01*
X106148571Y-59629761D01*
X106100952Y-59582142D01*
X106100952Y-59677380D01*
X105624761Y-59677380D02*
X105624761Y-59010714D01*
X105624761Y-59105952D02*
X105577142Y-59058333D01*
X105481904Y-59010714D01*
X105339047Y-59010714D01*
X105243809Y-59058333D01*
X105196190Y-59153571D01*
X105196190Y-59677380D01*
X105196190Y-59153571D02*
X105148571Y-59058333D01*
X105053333Y-59010714D01*
X104910476Y-59010714D01*
X104815238Y-59058333D01*
X104767619Y-59153571D01*
X104767619Y-59677380D01*
X103910476Y-59629761D02*
X104005714Y-59677380D01*
X104196190Y-59677380D01*
X104291428Y-59629761D01*
X104339047Y-59534523D01*
X104339047Y-59153571D01*
X104291428Y-59058333D01*
X104196190Y-59010714D01*
X104005714Y-59010714D01*
X103910476Y-59058333D01*
X103862857Y-59153571D01*
X103862857Y-59248809D01*
X104339047Y-59344047D01*
M02*
